HIERARCHY
ROOT Hips
{
  OFFSET 0.0 0.0 0.0
  CHANNELS 6 XPOSITION YPOSITION ZPOSITION ZROTATION XROTATION YROTATION 
  JOINT RightUpLeg
  {
    OFFSET -0.089458038 -0.086670642 0.001016508
    CHANNELS 3 ZROTATION XROTATION YROTATION 
    JOINT RightLeg
    {
      OFFSET 1.524e-006 -0.44256706 0.04075049
      CHANNELS 3 ZROTATION XROTATION YROTATION 
      JOINT RightFoot
      {
        OFFSET 0.001562862 -0.419119812 -0.041630854
        CHANNELS 3 ZROTATION XROTATION YROTATION 
        End Site
        {
          OFFSET 7.5692e-005 -0.04415155 0.084991702
        }
      }
    }
  }
  JOINT Spine
  {
    OFFSET 0.0 0.11890502 0.0
    CHANNELS 3 ZROTATION XROTATION YROTATION 
    JOINT Spine1
    {
      OFFSET 0.0 0.256575052 0.001270508
      CHANNELS 3 ZROTATION XROTATION YROTATION 
      End Site
      {
        OFFSET -0.002899918 0.215084406 0.0252476
      }
      JOINT RightArm
      {
        OFFSET -0.16272758 -0.05365633 0.001021842
        CHANNELS 3 ZROTATION XROTATION YROTATION 
        JOINT RightForeArm
        {
          OFFSET -0.263648698 -0.000263906 -0.014099794
          CHANNELS 3 ZROTATION XROTATION YROTATION 
          End Site
          {
            OFFSET -0.220319092 0.001914652 0.010174732
          }
        }
      }
      JOINT LeftArm
      {
        OFFSET 0.16272758 -0.05365633 0.001020826
        CHANNELS 3 ZROTATION XROTATION YROTATION 
        JOINT LeftForeArm
        {
          OFFSET 0.26260552 -0.000263144 -0.01410081
          CHANNELS 3 ZROTATION XROTATION YROTATION 
          End Site
          {
            OFFSET 0.220897958 0.001915922 0.01017524
          }
        }
      }
    }
  }
  JOINT LeftUpLeg
  {
    OFFSET 0.089458038 -0.086670642 0.001016508
    CHANNELS 3 ZROTATION XROTATION YROTATION 
    JOINT LeftLeg
    {
      OFFSET -3.048e-006 -0.442569346 0.040725598
      CHANNELS 3 ZROTATION XROTATION YROTATION 
      JOINT LeftFoot
      {
        OFFSET -0.002532888 -0.41911778 -0.041605708
        CHANNELS 3 ZROTATION XROTATION YROTATION 
        End Site
        {
          OFFSET -0.00040005 -0.044151042 0.084991194
        }
      }
    }
  }
}
MOTION
Frames: 14
Frame Time: 0.033333
0.16674592 0.95608639843 1.03241094 -3.96120492142 5.3371922066 -162.585099003 -7.97379677105 6.0462648802 0.196493056498 0.818211412564 39.473954742 7.77870010137 7.67953599991 -27.7517160035 -0.850314528963 -4.83191572926 8.31193296988 -0.966857139636 4.87457367572 -1.34321433 -1.83060318224 70.10646866 -16.7029407473 -2.29456939482 10.9875451716 22.6980180554 -5.05457221224 -83.476085847 -16.1877822669 -15.9549342879 -14.8396139153 51.8072683074 8.15342903868 0.134546869264 -12.8898279875 2.173803326 -2.62047763404 16.4336485865 2.40896567191 -4.4714853661 -27.3090770566 0.513762987387 
0.14794738 0.95280217843 1.01873812 -4.26956405678 6.02326934081 -163.13020274 -8.60738902412 2.11511108358 1.23233976249 0.559459620977 47.6320658753 5.20015854817 9.41169502531 -19.9777142185 -1.67906305579 -4.63873663519 9.78947193453 -0.752558513684 4.33698570785 -1.83813069104 -1.54639591595 70.4604227231 -16.497737959 -2.4951039623 10.6880866265 21.2038902688 -4.17586069156 -82.7292388122 -14.9287598368 -16.2778895375 -15.5120631146 50.7846318943 8.00826275938 -0.634745114299 -12.2398091295 2.27831525215 -3.11330801261 19.3052547739 2.75915566052 -2.76717494293 -29.908151866 0.264182485669 
0.13023596 0.95057459843 1.00458778 -4.43196290335 6.77550496797 -163.379490985 -8.30080829927 -1.63139111014 2.46399928082 0.0572333300263 54.4310649865 1.86962576052 9.77610269301 -16.207697391 -2.05885999345 -4.61480920187 11.0719509418 -0.759640139193 4.19129563842 -2.02613207483 -1.57798682152 71.314688143 -16.0750397494 -1.48069259106 10.7911285678 21.5116603004 -4.1164858571 -81.7728552341 -13.5020562626 -16.5628160014 -16.2864033683 49.3233982987 7.8166648541 -1.34131959284 -11.0358977882 2.30301086831 -3.32149025753 21.169973257 3.31461823345 -1.55325780146 -32.1340422146 0.138638632824 
0.11303762 0.95104449843 0.98867722 -4.31454981709 7.34729596189 -162.781466942 -7.18442412471 -4.88121944979 3.00320173466 -0.603099780657 58.8450508319 -1.14337259984 8.0984221102 -17.3907988533 -1.63023968966 -4.72009272594 11.7386226548 -1.11910803265 4.59931363708 -1.95473717465 -2.0596990395 72.4862841517 -15.5789921383 -0.146776829901 10.793670252 22.5413984027 -3.80496903991 -81.1363430751 -12.6595012021 -17.2578526362 -16.6739534245 48.3399740017 7.69767271348 -1.90356945281 -9.48727533735 2.22444042752 -3.33091741268 21.9696159465 2.95063766602 -0.56358911066 -33.8590918668 0.0782745681979 
0.09642348 0.95305363843 0.97142808 -3.92078258125 7.68186424064 -161.608819084 -5.52269587559 -7.73155215931 3.28196779478 -1.22331975063 60.4388003427 -3.53486728819 5.99094162858 -20.6237801045 -1.02723857322 -4.76860030254 11.8506351958 -1.57732696121 5.27895972129 -1.8197192758 -2.67294906824 73.8104392657 -14.9787312083 0.637747249244 10.3158729063 22.530704034 -2.27513217055 -81.0256803502 -12.4537938335 -18.5790519859 -16.6385115729 48.4006636475 7.70478891682 -2.18715677272 -8.01667072225 2.17981218493 -3.29890068751 22.340119558 1.72014184117 0.591067281857 -35.2713086098 0.0432371885246 
0.08036306 0.95500943843 0.95362776 -3.47412278736 7.87813143399 -160.361749485 -3.61400890354 -10.220404791 4.21215418237 -1.57482497754 59.4603074422 -5.16681612597 4.85636311074 -23.0865482437 -0.727897475356 -4.75008536725 11.7369424282 -1.91219491452 5.89293012154 -1.77272874825 -3.14440650424 75.1889012138 -14.0475928631 0.863610292595 9.63622639522 21.1073062713 0.256509968755 -81.2539316119 -12.4982592188 -20.166297449 -16.395935697 48.8820758708 7.76369502954 -2.26299962015 -6.59415960353 2.27163596747 -3.35153860756 22.5440348557 0.463845350251 1.49953067968 -36.5946065351 0.0448389412561 
0.06436614 0.95670361843 0.93581474 -3.13274929231 8.00119863623 -159.111483357 -1.73651743315 -12.2405706956 5.85444414 -1.62976275036 56.3054908759 -6.18897826781 4.20324676192 -24.8746456647 -0.567112367694 -4.65656855157 11.608198485 -2.19624220498 6.30202174055 -1.80266984297 -3.5329507798 76.5412376884 -12.6820049678 1.10325729802 9.21513669515 19.3557162115 2.8755540368 -81.463857476 -12.3875606354 -21.4720434957 -16.2050045889 48.6661257798 7.74264780161 -2.31053154691 -5.01279365264 2.43471783296 -3.50061858526 22.390560505 -0.660173214888 1.85663089873 -37.8255944537 0.0734287757654 
0.04807204 0.95832159843 0.91822016 -2.81140575389 8.04483842238 -157.709750955 -0.0857248504992 -13.6908495215 7.64969661097 -1.54986309073 51.0147443825 -7.09100293168 3.74603389888 -26.6870192855 -0.446348966918 -4.36055028737 11.4389387134 -2.55253454072 6.50836602425 -1.78543279338 -3.95862481746 77.7515540395 -10.9366278188 1.67868590128 9.01594703461 18.20857228 5.13212815649 -81.4701275897 -11.8899574487 -22.3074234425 -16.2640823101 47.6628358775 7.63145744457 -2.36540293883 -3.36323829472 2.56361823019 -3.65343958562 21.9338821043 -2.07441404174 2.17721073663 -38.9049658332 0.107814489358 
0.03156966 0.96007673843 0.90058494 -2.40625664813 8.01852170351 -156.256423303 1.32391040114 -14.4845653143 9.53568515686 -1.45590103209 43.5947956984 -8.07811595779 3.78829185239 -27.5419694318 -0.425186079342 -3.84937124593 11.11787628 -2.90241631704 6.56159454222 -1.59799596741 -4.34519303391 78.7203207506 -8.52728798063 2.50040248155 8.68935214794 17.6695764394 7.11571412921 -81.3771004132 -11.0475961947 -22.7816895803 -16.5520891893 46.6435189364 7.51987093655 -2.38231299311 -1.69819697697 2.6398602168 -3.70961874532 21.2189644963 -3.66175704848 2.95305576643 -39.7827202736 0.149646803353 
0.01518412 0.96226621843 0.88279478 -1.99214099809 7.88935087347 -155.000679364 2.51577851803 -14.6905655273 11.9166942242 -1.35268673517 34.6284136391 -8.80942687355 3.69868489312 -26.8308477015 -0.436043972369 -3.39680269808 10.6083877104 -3.10196819105 6.57810695143 -1.21601454315 -4.57483253154 79.3521747205 -5.65727023904 3.47919014739 8.03960052106 18.1229729343 8.72601574963 -81.3226774659 -10.0457218492 -22.8712504358 -16.8771822881 45.5862671246 7.40931493332 -2.45661691354 0.116874541859 2.65360554562 -3.64781535173 19.979556662 -4.85206137222 3.82242529588 -40.3396573136 0.19298892933 
-0.00101854 0.96485701843 0.86528148 -1.67356123169 7.51689297407 -154.013744349 3.36080589361 -14.7805549771 14.3582990222 -1.20547321339 25.1803222432 -8.85077086237 2.7599319542 -25.5105909179 -0.354014814499 -3.24199027068 9.90126932464 -3.1548362031 6.65284586953 -0.723987512221 -4.67117363045 79.553590169 -3.38149261561 4.59890681393 7.31037452055 19.9188294501 9.65184106144 -81.2919142939 -8.97879592817 -22.4421147729 -17.1632015823 43.7349614255 7.2336706424 -2.74266993174 2.02635981895 2.57100892176 -3.55847967904 18.0867558562 -5.59982066415 4.27426834957 -40.5014200988 0.213048808056 
-0.01725422 0.96767895843 0.84852764 -1.39756225195 6.83490285431 -153.217959009 3.86174584116 -15.2069893002 14.7363585305 -1.05994472062 16.0982487322 -7.55424727864 2.15490654045 -24.4010283948 -0.296263590715 -3.25026952717 9.05654141017 -3.15952747584 6.72061927535 -0.292610800211 -4.70466162106 79.3227024543 -1.84111484337 5.65529332616 6.97133844431 21.1509460575 10.0251399279 -81.2685618771 -7.8635430037 -21.5528053599 -17.509609994 41.5250810403 7.04353909336 -3.19630121433 3.84932599592 2.43700103713 -3.56799626698 15.6999462507 -6.3520016498 4.49815981613 -40.3529283712 0.209823291241 
-0.03339338 0.97042215843 0.83246468 -1.1069885023 6.04494366548 -152.551236923 4.47402320826 -15.7461695559 10.3458787811 -0.979497365191 7.75493872702 -3.22633803842 4.15048141615 -23.9555856552 -0.591120429266 -3.1987982888 8.3566169212 -3.16473464131 6.69383682295 -0.0908941097518 -4.69400609907 78.8004388696 -0.766867012943 6.36670363199 7.16481123651 20.0808193391 10.2161051869 -81.4234432467 -6.99571795077 -20.5147976061 -17.876358709 40.5220131192 6.95936896467 -3.6346535772 5.63007199888 2.35486609137 -3.69589732216 13.1007100781 -7.18926331374 4.8407036214 -40.1073420894 0.202264993233 
-0.04910328 0.97204775843 0.81611978 -0.93370745683 5.41936066298 -151.976080354 5.36405448684 -15.9978586118 3.76584187436 -0.0801450928754 0.828071430961 2.40275105354 9.0797657609 -24.9340341595 -1.22201433073 -3.23107605527 8.02569852478 -3.15210391399 6.68893573534 -0.0644854701405 -4.6671028377 78.2015815435 -0.463610882663 6.71052297509 7.56476320864 17.9282544863 10.2967364238 -81.9375925667 -6.87345884529 -19.5788960577 -18.0114103319 41.0726527248 6.99859602174 -4.0388406935 7.47724031084 2.33819338617 -3.85233085227 10.8225943956 -7.80618905146 5.17189181029 -40.0335384803 0.20426623866 
